<svg fill="none" height="25" viewBox="0 0 24 25" width="24" xmlns="http://www.w3.org/2000/svg"><path clip-rule="evenodd" d="m9.99997 2.99512c-.26522 0-.51957.10535-.70711.29289-.18753.18754-.29289.44189-.29289.70711v1.582c-.68964.27934-1.33689.65362-1.923 1.112l-1.371-.792c-.22968-.13261-.50263-.16854-.7588-.0999s-.47459.23622-.6072.4659l-2 3.464c-.1326.22968-.16854.50258-.0999.75878s.23623.4746.4659.6072l1.37.791c-.10256.7371-.10256 1.4849 0 2.222l-1.37.79c-.11386.0657-.21365.1531-.29367.2574-.08003.1043-.13872.2233-.17271.3502-.03399.127-.04262.2594-.0254.3897s.05997.2559.12578.3697l2 3.464c.13261.2297.35103.3973.6072.4659.25617.0687.52912.0327.7588-.0999l1.371-.792c.581.455 1.228.83 1.923 1.112v1.582c0 .2652.10536.5196.29289.7071.18754.1876.44189.2929.70711.2929h4.00003c.2652 0 .5195-.1053.7071-.2929.1875-.1875.2929-.4419.2929-.7071v-1.582c.6896-.2793 1.3368-.6536 1.923-1.112l1.371.792c.2296.1326.5026.1686.7588.0999.2561-.0686.4746-.2362.6072-.4659l2-3.464c.1326-.2297.1685-.5026.0999-.7588-.0687-.2562-.2363-.4746-.4659-.6072l-1.37-.791c.1025-.7371.1025-1.4849 0-2.222l1.37-.79c.1138-.0656.2136-.1531.2936-.2574.0801-.1042.1388-.2232.1727-.3502.034-.127.0427-.2594.0254-.3897-.0172-.13029-.0599-.25591-.1257-.36968l-2-3.464c-.1326-.22968-.3511-.39726-.6072-.4659-.2562-.06864-.5292-.03271-.7588.0999l-1.371.792c-.5861-.45837-1.2334-.83265-1.923-1.112v-1.582c0-.26522-.1054-.51957-.2929-.70711-.1876-.18754-.4419-.29289-.7071-.29289zm1.00003 3.29v-1.29h2v1.29c.0001.21539.0697.42498.1986.59759.1288.17262.3099.29902.5164.36041.9003.26888 1.7249.74571 2.407 1.392.1564.14826.3566.24199.5707.26722s.4306-.0194.6173-.12722l1.118-.646 1 1.732-1.117.64498c-.1864.1076-.3331.2725-.4183.4701-.0853.1977-.1044.4175-.0547.6269.2175.9153.2175 1.8688 0 2.784-.0497.2094-.0306.4293.0547.6269.0852.1976.2319.3625.4183.4701l1.117.645-1 1.732-1.119-.646c-.1866-.1076-.4029-.1521-.6167-.1268-.2139.0252-.4139.1188-.5703.2668-.6821.6464-1.5066 1.1232-2.407 1.392-.2065.0614-.3876.1878-.5164.3604-.1289.1726-.1985.3822-.1986.5976v1.29h-2v-1.29c-.0001-.2154-.0698-.425-.1986-.5976-.1289-.1726-.31-.299-.5164-.3604-.90041-.2688-1.72494-.7457-2.40703-1.392-.15648-.1482-.35668-.242-.57076-.2672s-.43058.0194-.61724.1272l-1.118.646-1-1.732 1.117-.645c.18639-.1076.3331-.2725.41831-.4701.08522-.1976.1044-.4175.05469-.6269-.21753-.9152-.21753-1.8687 0-2.784.04971-.2094.03053-.4292-.05469-.6269-.08521-.1976-.23192-.3625-.41831-.4701l-1.117-.64498 1-1.732 1.118.646c.18666.10782.40316.15245.61724.12722s.41428-.11896.57076-.26722c.68211-.64629 1.50663-1.12312 2.40703-1.392.2064-.06139.3875-.18779.5164-.36041.1288-.17261.1985-.3822.1986-.59759zm-1.00003 6.70998c0-.5304.21073-1.0391.58583-1.4142.375-.3751.8837-.5858 1.4142-.5858.5304 0 1.0391.2107 1.4142.5858s.5858.8838.5858 1.4142-.2107 1.0392-.5858 1.4142c-.3751.3751-.8838.5858-1.4142.5858-.5305 0-1.0392-.2107-1.4142-.5858-.3751-.375-.58583-.8838-.58583-1.4142zm2.00003-3.99998c-1.0609 0-2.07831.42142-2.82846 1.17158-.75014.7501-1.17157 1.7676-1.17157 2.8284 0 1.0609.42143 2.0783 1.17157 2.8284.75015.7502 1.76756 1.1716 2.82846 1.1716 1.0608 0 2.0783-.4214 2.8284-1.1716.7501-.7501 1.1716-1.7675 1.1716-2.8284 0-1.0608-.4215-2.0783-1.1716-2.8284-.7501-.75016-1.7676-1.17158-2.8284-1.17158z" fill="#000" fill-rule="evenodd"/></svg>